<svg width="50" height="50" viewBox="0 0 50 50" fill="none" xmlns="http://www.w3.org/2000/svg">
<g clip-path="url(#clip0_308_6460)">
<path d="M32.6923 23.0769H27.1635C26.5825 22.4359 25.8614 22.1154 25 22.1154H24.8498L14.2728 11.5385C13.8922 11.1579 13.4365 10.9675 12.9056 10.9675C12.3748 10.9675 11.9191 11.1579 11.5385 11.5385C11.1579 11.9191 10.9675 12.3748 10.9675 12.9056C10.9675 13.4365 11.1579 13.8922 11.5385 14.2728L22.1154 24.8498V25C22.1154 25.8013 22.3958 26.4824 22.9567 27.0433C23.5176 27.6042 24.1987 27.8846 25 27.8846C25.8614 27.8846 26.5825 27.5641 27.1635 26.9231H32.6923C33.2131 26.9231 33.6639 26.7328 34.0445 26.3522C34.4251 25.9716 34.6154 25.5208 34.6154 25C34.6154 24.4792 34.4251 24.0284 34.0445 23.6478C33.6639 23.2672 33.2131 23.0769 32.6923 23.0769ZM25 7.69231C25.5208 7.69231 25.9716 7.88261 26.3522 8.26322C26.7328 8.64383 26.9231 9.09455 26.9231 9.61538C26.9231 10.1362 26.7328 10.5869 26.3522 10.9675C25.9716 11.3482 25.5208 11.5385 25 11.5385C24.4792 11.5385 24.0284 11.3482 23.6478 10.9675C23.2672 10.5869 23.0769 10.1362 23.0769 9.61538C23.0769 9.09455 23.2672 8.64383 23.6478 8.26322C24.0284 7.88261 24.4792 7.69231 25 7.69231ZM25 38.4615C25.5208 38.4615 25.9716 38.6518 26.3522 39.0325C26.7328 39.4131 26.9231 39.8638 26.9231 40.3846C26.9231 40.9054 26.7328 41.3562 26.3522 41.7368C25.9716 42.1174 25.5208 42.3077 25 42.3077C24.4792 42.3077 24.0284 42.1174 23.6478 41.7368C23.2672 41.3562 23.0769 40.9054 23.0769 40.3846C23.0769 39.8638 23.2672 39.4131 23.6478 39.0325C24.0284 38.6518 24.4792 38.4615 25 38.4615ZM9.61538 23.0769C10.1362 23.0769 10.5869 23.2672 10.9675 23.6478C11.3482 24.0284 11.5385 24.4792 11.5385 25C11.5385 25.5208 11.3482 25.9716 10.9675 26.3522C10.5869 26.7328 10.1362 26.9231 9.61538 26.9231C9.09455 26.9231 8.64383 26.7328 8.26322 26.3522C7.88261 25.9716 7.69231 25.5208 7.69231 25C7.69231 24.4792 7.88261 24.0284 8.26322 23.6478C8.64383 23.2672 9.09455 23.0769 9.61538 23.0769ZM40.3846 23.0769C40.9054 23.0769 41.3562 23.2672 41.7368 23.6478C42.1174 24.0284 42.3077 24.4792 42.3077 25C42.3077 25.5208 42.1174 25.9716 41.7368 26.3522C41.3562 26.7328 40.9054 26.9231 40.3846 26.9231C39.8638 26.9231 39.4131 26.7328 39.0325 26.3522C38.6518 25.9716 38.4615 25.5208 38.4615 25C38.4615 24.4792 38.6518 24.0284 39.0325 23.6478C39.4131 23.2672 39.8638 23.0769 40.3846 23.0769ZM25 0C21.6146 0 18.3744 0.661058 15.2794 1.98317C12.1845 3.30529 9.52524 5.07812 7.30168 7.30168C5.07812 9.52524 3.30529 12.1845 1.98317 15.2794C0.661058 18.3744 0 21.6146 0 25C0 28.3854 0.661058 31.6256 1.98317 34.7206C3.30529 37.8155 5.07812 40.4748 7.30168 42.6983C9.52524 44.9219 12.1845 46.6947 15.2794 48.0168C18.3744 49.3389 21.6146 50 25 50C28.3854 50 31.6256 49.3389 34.7206 48.0168C37.8155 46.6947 40.4748 44.9219 42.6983 42.6983C44.9219 40.4748 46.6947 37.8155 48.0168 34.7206C49.3389 31.6256 50 28.3854 50 25C50 21.6146 49.3389 18.3744 48.0168 15.2794C46.6947 12.1845 44.9219 9.52524 42.6983 7.30168C40.4748 5.07812 37.8155 3.30529 34.7206 1.98317C31.6256 0.661058 28.3854 0 25 0ZM25 3.84615C27.8646 3.84615 30.604 4.40204 33.2181 5.51382C35.8323 6.6256 38.0859 8.128 39.979 10.021C41.872 11.9141 43.3744 14.1677 44.4862 16.7819C45.598 19.396 46.1538 22.1354 46.1538 25C46.1538 27.8646 45.598 30.604 44.4862 33.2181C43.3744 35.8323 41.872 38.0859 39.979 39.979C38.0859 41.872 35.8323 43.3744 33.2181 44.4862C30.604 45.598 27.8646 46.1538 25 46.1538C22.1354 46.1538 19.396 45.598 16.7819 44.4862C14.1677 43.3744 11.9141 41.872 10.021 39.979C8.128 38.0859 6.6256 35.8323 5.51382 33.2181C4.40204 30.604 3.84615 27.8646 3.84615 25C3.84615 22.1354 4.40204 19.396 5.51382 16.7819C6.6256 14.1677 8.128 11.9141 10.021 10.021C11.9141 8.128 14.1677 6.6256 16.7819 5.51382C19.396 4.40204 22.1354 3.84615 25 3.84615Z" fill="#7209B7"/>
</g>
<defs>
<clipPath id="clip0_308_6460">
<rect width="50" height="50" fill="white"/>
</clipPath>
</defs>
</svg>
