<svg width="50" height="50" viewBox="0 0 50 50" fill="none" xmlns="http://www.w3.org/2000/svg">
<path fill-rule="evenodd" clip-rule="evenodd" d="M33.9001 21.3997C33.9001 23.6099 33.0221 25.7295 31.4593 27.2923C29.8965 28.8551 27.7769 29.7331 25.5667 29.7331C23.3566 29.7331 21.237 28.8551 19.6742 27.2923C18.1114 25.7295 17.2334 23.6099 17.2334 21.3997C17.2334 19.1896 18.1114 17.07 19.6742 15.5072C21.237 13.9444 23.3566 13.0664 25.5667 13.0664C27.7769 13.0664 29.8965 13.9444 31.4593 15.5072C33.0221 17.07 33.9001 19.1896 33.9001 21.3997ZM29.7334 21.3997C29.7334 22.5048 29.2944 23.5646 28.513 24.346C27.7316 25.1274 26.6718 25.5664 25.5667 25.5664C24.4617 25.5664 23.4019 25.1274 22.6205 24.346C21.8391 23.5646 21.4001 22.5048 21.4001 21.3997C21.4001 20.2947 21.8391 19.2349 22.6205 18.4535C23.4019 17.6721 24.4617 17.2331 25.5667 17.2331C26.6718 17.2331 27.7316 17.6721 28.513 18.4535C29.2944 19.2349 29.7334 20.2947 29.7334 21.3997Z" fill="#7209B7"/>
<path fill-rule="evenodd" clip-rule="evenodd" d="M12.0708 34.4124C9.38509 31.8552 7.51794 28.5591 6.7055 24.9408C5.89306 21.3224 6.17183 17.5444 7.50655 14.0846C8.84128 10.6247 11.172 7.63827 14.204 5.50301C17.236 3.36776 20.8331 2.17955 24.5404 2.08864C28.2477 1.99774 31.8987 3.00822 35.0317 4.99231C38.1647 6.97639 40.639 9.84497 42.1417 13.2353C43.6444 16.6256 44.108 20.3854 43.4739 24.0392C42.8397 27.693 41.1364 31.0767 38.5792 33.7624L25.65 47.3415L12.0708 34.4124ZM35.5625 30.8895L25.5063 41.452L14.9438 31.3957C12.8549 29.4068 11.4028 26.8432 10.7709 24.029C10.1391 21.2148 10.3559 18.2764 11.394 15.5855C12.4321 12.8945 14.2448 10.5718 16.6029 8.91105C18.9611 7.25029 21.7587 6.32608 24.6421 6.25529C27.5255 6.18449 30.3651 6.97029 32.8019 8.51332C35.2387 10.0563 37.1632 12.2873 38.3321 14.9241C39.501 17.5608 39.8617 20.485 39.3688 23.3268C38.8758 26.1686 37.5512 28.8004 35.5625 30.8895Z" fill="#7209B7"/>
</svg>
