<svg width="50" height="50" viewBox="0 0 50 50" fill="none" xmlns="http://www.w3.org/2000/svg">
<path d="M13.525 4.6875C12.7078 4.6875 11.9016 4.98125 11.2297 5.51719L11.1328 5.56562L11.0844 5.61563L6.20158 10.6453L6.25001 10.6922C5.53357 11.3427 5.02594 12.191 4.79123 13.1298C4.55652 14.0687 4.60525 15.056 4.93126 15.9672C4.93751 15.9797 4.92501 16.0031 4.93126 16.0156C6.25626 19.8062 9.64376 27.125 16.2594 33.7406C22.9 40.3812 30.3156 43.6344 33.9844 45.0687H34.0328C34.9523 45.3727 35.9347 45.4334 36.8845 45.245C37.8344 45.0566 38.7193 44.6255 39.4531 43.9937L44.3844 39.0625C45.6781 37.7687 45.6781 35.5219 44.3844 34.2281L38.0375 27.8812L37.9875 27.7828C36.6938 26.4891 34.4 26.4891 33.1047 27.7828L29.9797 30.9078C27.6345 29.7811 25.4773 28.2991 23.5844 26.5141C21.0266 24.0719 19.7203 21.2641 19.2391 20.1656L22.3641 17.0406C23.6766 15.7281 23.7 13.5437 22.3141 12.2562L22.3625 12.2062L22.2172 12.0609L15.9672 5.61563L15.9188 5.56719L15.8203 5.51719C15.1718 4.98766 14.3622 4.69501 13.525 4.6875ZM13.525 7.8125C13.6527 7.81992 13.7738 7.87189 13.8672 7.95937L20.1172 14.3547L20.2641 14.5016C20.2516 14.4891 20.3547 14.6547 20.1656 14.8437L16.2594 18.75L15.5266 19.4344L15.8703 20.4094C15.8703 20.4094 17.6641 25.2141 21.436 28.8094L21.7781 29.1016C25.4078 32.4156 29.6875 34.2281 29.6875 34.2281L30.6641 34.6687L35.3031 30.0281C35.5719 29.7609 35.5219 29.7609 35.7906 30.0281L42.1875 36.4281C42.4563 36.6953 42.4563 36.5984 42.1875 36.8656L37.4016 41.6516C36.6828 42.2687 35.9188 42.3969 35.011 42.0922C31.4703 40.7 24.5906 37.6781 18.4563 31.5453C12.2735 25.3609 9.04533 18.3484 7.86251 14.9437C7.62345 14.3078 7.79376 13.3687 8.35001 12.8922L8.44689 12.7937L13.1844 7.96094C13.2767 7.87355 13.3966 7.82107 13.5235 7.8125H13.525Z" fill="#7209B7"/>
</svg>
