<svg width="80" height="80" viewBox="0 0 80 80" fill="none" xmlns="http://www.w3.org/2000/svg">
<g clip-path="url(#clip0_312_6467)">
<path d="M39.8133 0.000108889C29.2371 0.0494654 19.1108 4.28552 11.6497 11.7816C4.18852 19.2777 -0.000115163 29.4237 2.37478e-09 40.0001C2.3748e-09 50.6088 4.21427 60.7829 11.7157 68.2844C19.2172 75.7858 29.3913 80.0001 40 80.0001C50.6087 80.0001 60.7828 75.7858 68.2843 68.2844C75.7857 60.7829 80 50.6088 80 40.0001C80 29.3914 75.7857 19.2173 68.2843 11.7158C60.7828 4.21438 50.6087 0.000108889 40 0.000108889C39.9378 -3.62963e-05 39.8756 -3.62963e-05 39.8133 0.000108889ZM56.3533 24.0801C56.6867 24.0734 57.4233 24.1568 57.9033 24.5468C58.2223 24.8238 58.4257 25.2104 58.4733 25.6301C58.5267 25.9401 58.5933 26.6501 58.54 27.2034C57.94 33.5301 55.3333 48.8768 54.0067 55.9601C53.4467 58.9601 52.3433 59.9634 51.2733 60.0601C48.9533 60.2768 47.19 58.5268 44.94 57.0534C41.42 54.7434 39.43 53.3068 36.0133 51.0534C32.0633 48.4534 34.6233 47.0201 36.8733 44.6868C37.4633 44.0734 47.6967 34.7634 47.8967 33.9201C47.92 33.8134 47.9433 33.4201 47.71 33.2134C47.4767 33.0068 47.13 33.0768 46.88 33.1334C46.5267 33.2134 40.9033 36.9334 30.01 44.2834C28.41 45.3834 26.9667 45.9168 25.67 45.8834C24.2433 45.8568 21.4967 45.0801 19.4533 44.4168C16.9467 43.6001 14.9567 43.1701 15.13 41.7868C15.22 41.0668 16.2133 40.3301 18.1067 39.5768C29.7667 34.4968 37.54 31.1468 41.4333 29.5301C52.54 24.9101 54.85 24.1068 56.3533 24.0801Z" fill="black"/>
</g>
<defs>
<clipPath id="clip0_312_6467">
<rect width="80" height="80" fill="white"/>
</clipPath>
</defs>
</svg>
