<svg width="80" height="80" viewBox="0 0 80 80" fill="none" xmlns="http://www.w3.org/2000/svg">
<g clip-path="url(#clip0_312_6464)">
<path d="M31.63 0.0129297L34.06 0.00292969H45.94L48.3733 0.0129297L51.42 0.046263L52.8633 0.0695964L54.2567 0.106263L55.6 0.15293L56.8933 0.206263L58.14 0.276263L59.34 0.359596L60.49 0.459596L61.6 0.569596C67.4 1.22293 71.3767 2.62293 74.3767 5.62293C77.3767 8.62293 78.7767 12.5963 79.43 18.3996L79.5433 19.5096L79.64 20.6629L79.7233 21.8629L79.79 23.1063L79.8733 25.0663L79.9133 26.4329L79.9567 28.5796L79.9867 31.6296L80 34.8963L79.9967 45.9396L79.9867 48.3729L79.9533 51.4196L79.93 52.8629L79.8933 54.2563L79.8467 55.5996L79.7933 56.8929L79.7233 58.1396L79.64 59.3396L79.54 60.4896L79.43 61.5996C78.7767 67.3996 77.3767 71.3763 74.3767 74.3763C71.3767 77.3763 67.4033 78.7763 61.6 79.4296L60.49 79.5429L59.3367 79.6396L58.1367 79.7229L56.8933 79.7896L54.9333 79.8729L53.5667 79.9129L51.42 79.9563L48.37 79.9863L45.1033 79.9996L34.06 79.9963L31.6267 79.9863L28.58 79.9529L27.1367 79.9296L25.7433 79.8929L24.4 79.8463L23.1067 79.7929L21.86 79.7229L20.66 79.6396L19.51 79.5396L18.4 79.4296C12.6 78.7763 8.62333 77.3763 5.62333 74.3763C2.62333 71.3763 1.22333 67.4029 0.57 61.5996L0.456667 60.4896L0.36 59.3363L0.276667 58.1363L0.21 56.8929L0.126667 54.9329L0.0866667 53.5663L0.0433333 51.4196L0.0133333 48.3696L0 45.1029L0.00333333 34.0596L0.0133333 31.6263L0.0466667 28.5796L0.07 27.1363L0.106667 25.7429L0.153333 24.3996L0.206667 23.1063L0.276667 21.8596L0.36 20.6596L0.46 19.5096L0.57 18.3996C1.22333 12.5996 2.62333 8.62293 5.62333 5.62293C8.62333 2.62293 12.5967 1.22293 18.4 0.569596L19.51 0.456263L20.6633 0.359596L21.8633 0.276263L23.1067 0.209596L25.0667 0.126263L26.4333 0.086263L28.58 0.0429297L31.63 0.0129297ZM22.6333 24.3329H13.5C13.9333 45.1329 24.3333 57.6329 42.5667 57.6329H43.6V45.7329C50.3 46.3996 55.3667 51.2996 57.4 57.6329H66.8667C64.2667 48.1663 57.4333 42.9329 53.1667 40.9329C57.4333 38.4663 63.4333 32.4663 64.8667 24.3329H56.2667C54.4 30.9329 48.8667 36.9329 43.6 37.4996V24.3329H35V47.3996C29.6667 46.0663 22.9333 39.5996 22.6333 24.3329Z" fill="black"/>
</g>
<defs>
<clipPath id="clip0_312_6464">
<rect width="80" height="80" fill="white"/>
</clipPath>
</defs>
</svg>
